PathFileType	4	(X/Y/Z)	s01c0201.trc
DataRate	CameraRate	NumFrames	NumMarkers	Units	OrigDataRate	OrigDataStartFrame	OrigNumFrames
200	200	6	48	mm	200	250	2000
Frame#	Time	racr			lacr			c7			jug			rlel			rdr			llel			ldr			s2			lic			ric			lasi			rasi			rpsi			lpsi			rgt			lgt			rth1			rth2			rth3			rth4			rlfc			rsh1			rsh2			rsh3			rsh4			rlmal			rmmal			rcal			rtoe			rmt5			lth1			lth2			lth4			lth3			llfc			lsh1			lsh2			lsh3			lsh4			llmal			lmmal			lcal			ltoe			lmt5			SBIKE			LBIKE			RBIKE			
		X1	Y1	Z1	X2	Y2	Z2	X3	Y3	Z3	X4	Y4	Z4	X5	Y5	Z5	X6	Y6	Z6	X7	Y7	Z7	X8	Y8	Z8	X9	Y9	Z9	X10	Y10	Z10	X11	Y11	Z11	X12	Y12	Z12	X13	Y13	Z13	X14	Y14	Z14	X15	Y15	Z15	X16	Y16	Z16	X17	Y17	Z17	X18	Y18	Z18	X19	Y19	Z19	X20	Y20	Z20	X21	Y21	Z21	X22	Y22	Z22	X23	Y23	Z23	X24	Y24	Z24	X25	Y25	Z25	X26	Y26	Z26	X27	Y27	Z27	X28	Y28	Z28	X29	Y29	Z29	X30	Y30	Z30	X31	Y31	Z31	X32	Y32	Z32	X33	Y33	Z33	X34	Y34	Z34	X35	Y35	Z35	X36	Y36	Z36	X37	Y37	Z37	X38	Y38	Z38	X39	Y39	Z39	X40	Y40	Z40	X41	Y41	Z41	X42	Y42	Z42	X43	Y43	Z43	X44	Y44	Z44	X45	Y45	Z45	X46	Y46	Z46	X47	Y47	Z47	X48	Y48	Z48	
250	1.2500	514.310791	1285.442627	-144.537994	504.705780	1239.338745	-452.384277	472.416168	1333.013184	-294.503845	474.846619	1165.079712	-280.292511	505.278564	1046.270020	30.678402	693.463623	893.798767	-42.608799	495.544891	998.268494	-599.819458	674.110840	903.168030	-449.511993	-68.584290	1180.195435	-248.309372	110.891182	1158.282471	-424.751862	93.505150	1163.862427	-90.363213	105.217140	1110.618530	-393.244263	107.402199	1116.187988	-109.897736	-31.964415	1215.635620	-196.669617	-31.584440	1219.675415	-300.956543	21.760269	1055.338379	-55.694202	50.612354	1052.875610	-443.550751	119.610535	957.346802	-38.579227	180.744354	901.811646	-45.035816	242.284576	836.447327	-56.029716	218.174576	939.751160	-60.003326	282.356171	735.234253	-81.935860	197.504257	652.113403	-52.484779	145.648041	585.220947	-59.400928	84.178749	521.835083	-74.577850	178.844849	556.336853	-100.535736	-6.102590	429.108551	-98.522049	46.386517	425.377228	-173.047577	-54.939392	414.630920	-159.320404	180.242630	276.932220	-131.685608	70.192276	297.444092	-70.921837	163.002579	971.104309	-448.994232	222.004028	932.875732	-413.545868	240.832764	983.341553	-407.200562	298.429840	897.999939	-387.922760	381.131805	823.895081	-358.578125	339.148865	723.409058	-403.189392	322.881622	638.054077	-405.210388	303.284058	554.379089	-401.697449	372.970215	628.147583	-371.230591	270.745514	429.953522	-401.279968	295.187500	436.376160	-311.319519	220.221954	385.759155	-363.968475	498.801575	398.154999	-371.359436	397.021667	365.729553	-437.472168	-223.573669	893.229126	-249.301682	-12.134725	84.544228	-453.804688	-20.308641	80.856972	-53.840549	
251	1.2550	514.155518	1284.801514	-145.134048	504.424622	1238.520142	-452.827484	472.223816	1332.269287	-295.087982	474.342682	1164.270386	-280.779144	504.912689	1046.040894	30.759644	693.292236	893.837891	-42.709949	495.291199	997.515198	-600.143494	673.869141	903.043335	-449.560059	-69.139542	1180.480835	-248.483139	109.836708	1158.204102	-424.729919	92.778313	1164.266357	-90.506050	104.661194	1110.613159	-393.574280	106.807663	1116.527954	-110.107483	-32.426155	1215.986694	-196.926544	-31.999434	1219.904053	-301.130096	21.147161	1055.857910	-55.754707	49.782368	1052.734009	-443.689575	119.376778	958.228821	-38.364269	180.740295	903.004028	-44.832954	242.737457	838.040405	-56.126938	217.996658	941.179626	-59.743710	283.154694	737.097900	-81.658585	198.028809	654.231323	-52.309563	145.844299	587.559082	-59.304523	84.080338	524.473816	-74.537338	182.110916	560.374573	-98.887589	-6.376080	432.070068	-98.646400	46.096313	428.465363	-173.071716	-55.808231	418.023773	-159.233612	179.688995	279.848022	-131.758224	69.549934	300.436646	-70.942810	159.372116	969.667297	-447.065704	220.401031	931.567017	-413.911865	239.625275	981.961426	-407.616882	296.659882	896.186218	-388.239349	378.965271	822.067810	-359.056000	337.880951	720.910095	-403.766479	322.065735	635.509094	-405.645111	303.119385	551.612915	-401.980438	372.238525	625.857788	-371.486877	271.202850	427.041443	-401.416473	295.689636	433.794830	-311.502136	221.677475	382.108276	-362.389343	499.454041	395.084595	-371.279388	397.670227	362.755035	-437.512817	-223.592072	893.213989	-249.331467	-12.146689	84.517433	-453.825592	-20.294966	80.835106	-53.839039	
252	1.2600	513.996033	1284.132812	-145.796295	504.143433	1237.666870	-453.254364	472.040649	1331.519165	-295.689423	473.910736	1163.516113	-281.216492	504.529114	1045.919678	30.936022	693.125977	893.911804	-42.722908	495.016479	996.739563	-600.475647	673.621399	902.879395	-449.577057	-69.635712	1180.779419	-248.690094	109.043846	1158.199585	-424.844910	92.268753	1164.599731	-90.554817	104.107666	1110.616943	-393.927032	106.249802	1116.841187	-110.278534	-32.878654	1216.276855	-197.227875	-32.416817	1220.105103	-301.297089	20.519751	1056.389648	-55.793850	48.938755	1052.554932	-443.797516	119.176689	959.108826	-38.250916	180.812241	904.257690	-44.660416	243.152710	839.563538	-55.959255	217.908112	942.561890	-59.550587	283.947327	738.936218	-81.477242	198.613052	656.379578	-52.184574	146.106842	589.931824	-59.226192	84.043411	527.074890	-74.538208	182.279388	562.686951	-98.815483	-6.687664	435.192291	-98.614258	45.682396	431.372559	-173.156479	-56.280960	421.142853	-159.194016	179.071304	282.842194	-131.851028	69.026863	303.515106	-70.951134	155.420120	968.060669	-444.812897	218.814651	930.341858	-414.260620	238.430328	980.509155	-408.088531	294.945282	894.315491	-388.446075	376.832733	819.988464	-359.401031	336.594788	718.366882	-404.286560	321.395844	632.882446	-406.012573	302.854797	548.847473	-402.253479	371.692017	623.603699	-372.092041	271.614594	424.106201	-401.538727	296.162964	430.851532	-311.796661	221.976074	379.527374	-363.506805	500.100189	391.919983	-371.313507	398.281769	359.711853	-437.570679	-223.606049	893.211670	-249.316071	-12.152225	84.526863	-453.806183	-20.293629	80.840141	-53.836800	
253	1.2650	513.872375	1283.499390	-146.273926	503.801331	1236.828003	-453.691681	471.854370	1330.800537	-296.277985	473.377106	1162.673950	-281.729034	504.175995	1045.769653	31.103806	692.979248	894.002014	-42.736866	494.790100	995.914978	-600.770081	673.358215	902.702454	-449.626373	-70.199493	1181.040894	-248.909241	108.514893	1158.517700	-425.166046	91.693085	1164.960571	-90.671341	103.562744	1110.613403	-394.281921	105.702095	1117.083862	-110.455727	-33.311440	1216.544434	-197.449310	-32.834240	1220.274414	-301.453461	19.983841	1056.982178	-55.833729	48.139553	1052.436523	-443.927917	118.995293	960.004150	-38.137154	180.932739	905.419800	-44.445263	243.605789	841.058167	-55.782539	217.840378	943.976685	-59.363419	284.891663	740.876831	-81.220787	199.245712	658.541382	-52.028885	146.496323	592.350037	-59.113499	84.137962	529.888489	-74.495911	182.494415	564.982544	-98.760773	-6.959786	438.328491	-98.613594	45.270638	434.382782	-173.160873	-56.690979	424.374695	-159.187897	178.469513	285.819092	-131.925186	68.539986	306.685242	-70.887177	151.264267	966.327515	-442.340302	217.249207	928.873474	-414.595184	237.218552	979.000549	-408.579010	293.002106	892.371033	-388.757507	375.312408	816.709595	-359.303680	335.286591	715.875854	-404.848755	320.560883	630.081543	-406.340210	302.480988	545.984741	-402.579742	370.872650	621.261780	-372.409363	271.980743	421.150208	-401.646698	296.790771	428.255676	-312.059387	222.516510	376.678528	-363.584534	500.650848	388.679382	-371.207855	398.888611	356.608276	-437.537079	-223.627472	893.197510	-249.320206	-12.148862	84.504456	-453.812256	-20.303507	80.834198	-53.843235	
254	1.2700	513.720276	1282.912354	-146.963196	503.484253	1235.999390	-454.147217	471.665680	1330.124878	-296.933075	472.872284	1161.954956	-282.219421	503.882111	1045.697876	31.245485	692.857483	894.086792	-42.755249	494.468414	995.172668	-601.111267	673.114075	902.438965	-449.691254	-70.706947	1181.282593	-249.042786	108.141808	1158.702026	-425.823029	91.144592	1165.246582	-90.814476	103.024513	1110.598999	-394.650696	105.237167	1117.342651	-110.692459	-33.744114	1216.772339	-197.638184	-33.246178	1220.408325	-301.594666	19.498795	1057.522461	-55.872585	47.377888	1052.176147	-444.069550	118.880356	960.872620	-38.033710	181.107162	906.733582	-44.211792	244.180557	842.670837	-55.551525	217.836243	945.420471	-59.209236	285.733704	742.824829	-81.020111	200.020615	660.772400	-51.801483	146.966705	594.789062	-58.974667	84.255112	532.655090	-74.456894	182.770157	567.329285	-98.719116	-7.229210	441.518921	-98.609642	44.982384	437.489655	-173.272476	-57.067631	427.591156	-159.178757	178.068405	288.904083	-131.958435	68.154327	309.867615	-70.910255	147.049210	964.521545	-439.780518	215.679245	927.513611	-414.966309	236.086075	977.345703	-408.902740	289.089478	890.169556	-389.888062	373.246582	814.338745	-359.612854	333.907623	713.244385	-405.216248	319.668915	627.350708	-406.662872	302.166992	543.147766	-402.890686	370.055573	618.904236	-372.712341	272.301910	418.175110	-401.740875	297.685638	425.656586	-312.459869	223.065094	373.757385	-363.745697	501.237762	385.398071	-371.114899	399.451874	353.474243	-437.501434	-223.652115	893.195740	-249.381699	-12.146102	84.514297	-453.831451	-20.322357	80.826721	-53.851952	
255	1.2750	513.538574	1282.410156	-147.618698	503.158661	1235.216553	-454.665680	471.473480	1329.418579	-297.565582	472.414337	1161.244263	-282.760468	503.597748	1045.612793	31.362085	692.719666	894.315552	-42.687988	494.202759	994.329834	-601.392822	672.884949	902.167847	-449.760773	-71.206314	1181.462769	-249.236618	107.173859	1158.672852	-425.802429	90.714302	1165.545410	-90.935905	102.493729	1110.574585	-395.039001	104.797142	1117.581787	-110.921707	-34.163860	1217.004517	-197.880615	-33.650169	1220.503296	-301.724365	19.093031	1058.023438	-55.870544	46.426235	1052.028687	-444.105072	118.760246	961.669434	-38.313553	181.421722	907.999512	-44.023819	244.802353	844.320923	-55.323021	217.917953	946.927734	-59.102245	286.769623	744.801636	-80.796417	200.854401	663.031982	-51.621433	147.517929	597.284973	-58.815956	84.485680	535.444275	-74.406441	183.154083	569.735840	-98.654991	-7.382441	444.777252	-98.567177	44.652718	440.622528	-173.346802	-57.378132	430.995087	-159.147247	177.714432	292.022583	-131.933044	67.743362	313.074860	-70.909760	142.928772	962.699829	-437.277100	214.115173	925.966919	-415.332581	234.882248	975.731323	-409.331512	287.213684	888.053040	-390.179230	370.826721	811.883301	-360.808380	332.179321	709.993896	-404.877563	318.725800	624.590210	-406.952606	301.812653	540.346741	-403.209991	369.191071	616.514893	-373.030853	272.579071	415.181885	-401.821930	298.613983	423.095245	-312.847107	223.526764	370.959991	-363.856995	501.799377	382.049408	-371.014282	399.952942	350.332825	-437.471069	-223.648773	893.179688	-249.342484	-12.158743	84.511612	-453.808044	-20.322454	80.852562	-53.845726	
